<svg width="42" height="42" fill="none" xmlns="http://www.w3.org/2000/svg"><path d="M25.138 15.402v-2.256h-.608a3.545 3.545 0 0 0-2.991-3.731v-.933h.48c.384.384.825.744 1.31 1.06 1.032.676 3.149 1.23 4.067-.207a4.89 4.89 0 0 0-.57-.85c-.094.3-1.786 1.61-4.626-1.408 0 0 4.349-.952 5.378 1.874.101-.416.266-.876.427-1.328.246-.684.499-1.391.56-2.029.104-1.102-.424-1.646-.885-1.908a2.302 2.302 0 0 0-1.153-.284c-.963 0-2.19.473-3.646 1.407-.542.346-1.01.69-1.342.946V0h-1.078v5.755c-.332-.255-.801-.599-1.343-.946-1.456-.933-2.683-1.407-3.646-1.407-.435 0-.822.096-1.154.284-.46.262-.988.807-.884 1.908.061.638.314 1.345.56 2.03.162.451.327.912.427 1.328C15.45 6.125 19.8 7.077 19.8 7.077c-2.84 3.018-4.531 1.708-4.626 1.41-.21.239-.445.61-.57.848.918 1.438 3.034.884 4.067.208a8.22 8.22 0 0 0 1.31-1.06h.481v.932a3.546 3.546 0 0 0-2.992 3.732h-.607v2.256c-5.5 1.751-9.482 6.899-9.482 12.978C7.38 35.903 13.478 42 21 42c7.522 0 13.62-6.097 13.62-13.62 0-6.079-3.984-11.227-9.482-12.978ZM12.286 29.497l-1.405.086c-.005-.075-.11-1.885.42-3.963.723-2.838 2.29-4.803 4.53-5.682l.515 1.31c-4.4 1.726-4.064 8.183-4.06 8.249Zm10.12-16.352h-2.811A1.428 1.428 0 0 1 21 11.486a1.428 1.428 0 0 1 1.405 1.66Z" fill="#fff"/></svg>