<svg width="42" height="42" fill="none" xmlns="http://www.w3.org/2000/svg"><path d="M25.375 37.625a4.374 4.374 0 1 1-8.75 0h8.75ZM10.5 22.33c0 4.945-2.006 9.426-5.25 12.67h31.5a17.866 17.866 0 0 1-5.25-12.67V17.5c0-2.693-1.024-5.141-2.692-7h.942A5.251 5.251 0 0 0 35 5.25a5.251 5.251 0 0 0-8.962-3.712L21 6.826l-5.038-5.288A5.251 5.251 0 1 0 12.25 10.5h.94a10.453 10.453 0 0 0-2.69 7v4.83ZM28.573 3.95c.131-.13.547-.45 1.177-.45.966 0 1.75.785 1.75 1.749 0 .964-.784 1.75-1.75 1.75h-4.08l2.903-3.049ZM10.5 5.25c0-.964.784-1.75 1.75-1.75.63 0 1.046.321 1.177.451l2.904 3.05H12.25C11.284 7 10.5 6.213 10.5 5.25Z" fill="#fff"/></svg>