<svg width="42" height="42" fill="none" xmlns="http://www.w3.org/2000/svg"><path fill-rule="evenodd" clip-rule="evenodd" d="M6 10.333c-.667-1.266-2.667-2.066-1-3.866C3.133 5.933 2.267 4.333 2.533 2.8c.2-1.2 2-2.6 3.267-2.6 1.533 0 2.667 1.2 3 2.8.733-.267 1-.533 1.467-.4.466.133 1.066.867 1.4 1.267.533.666 1 .866 1.866.533C28.4 1.133 40 30.933 39.333 41.733c-7.2.267-41.4-15.2-33.333-31.4ZM7.733 3.6C7.667 2.467 7 1.667 6 1.6c-1.133-.067-2.133.733-2.067 1.933.067 1.134.8 1.867 1.8 1.867 1.067-.067 1.934-1 2-1.8Z" fill="#fff"/></svg>