<svg width="234" height="87" fill="none" xmlns="http://www.w3.org/2000/svg"><g clip-path="url(#a)"><path d="m120.81 28.816 11.132-.72c.254 1.822.72 3.178 1.482 4.153 1.228 1.526 2.921 2.288 5.164 2.288 1.651 0 2.963-.381 3.852-1.186a3.413 3.413 0 0 0 1.355-2.712 3.357 3.357 0 0 0-1.27-2.628c-.847-.763-2.836-1.525-5.969-2.203-5.121-1.145-8.804-2.67-10.963-4.62-2.159-1.822-3.386-4.491-3.302-7.33 0-1.95.593-3.9 1.693-5.51 1.27-1.822 3.006-3.263 5.08-4.068 2.244-.975 5.376-1.483 9.313-1.483 4.825 0 8.508.89 11.048 2.712 2.54 1.78 4.063 4.662 4.529 8.602l-11.006.636c-.296-1.695-.889-2.924-1.862-3.729-.974-.805-2.244-1.187-3.895-1.187-1.354 0-2.37.297-3.047.848-.635.508-1.059 1.271-1.016 2.119 0 .636.338 1.229.846 1.61.551.509 1.863.975 3.937 1.399 5.122 1.101 8.762 2.203 11.006 3.347 2.243 1.145 3.852 2.543 4.825 4.196a10.51 10.51 0 0 1 1.482 5.636c0 2.373-.677 4.746-2.032 6.738a12.846 12.846 0 0 1-5.63 4.661c-2.413 1.06-5.46 1.61-9.101 1.61-6.434 0-10.878-1.228-13.376-3.729-2.497-2.5-3.979-5.636-4.275-9.45ZM2.667 41.36V3.475H22.18c3.598 0 6.392.297 8.297.932a8.768 8.768 0 0 1 4.614 3.475c1.227 1.822 1.82 3.941 1.777 6.145.127 3.729-1.777 7.289-5.037 9.153a12.902 12.902 0 0 1-4.106 1.483c1.058.297 2.117.806 3.048 1.399.72.593 1.312 1.271 1.862 1.992.635.72 1.186 1.525 1.651 2.373l5.672 10.975H26.668L20.403 29.75c-.804-1.483-1.481-2.458-2.116-2.924a5.022 5.022 0 0 0-2.879-.89h-1.016v15.383H2.667v.042Zm11.725-22.545h4.953a18.818 18.818 0 0 0 3.09-.508 2.964 2.964 0 0 0 1.905-1.187c1.143-1.525.973-3.687-.424-5-.762-.636-2.243-.975-4.36-.975h-5.164v7.67ZM0 73.821l11.133-.72c.254 1.822.72 3.178 1.481 4.152 1.186 1.526 2.921 2.331 5.165 2.331 1.65 0 2.963-.381 3.852-1.187.846-.678 1.354-1.652 1.354-2.712a3.356 3.356 0 0 0-1.27-2.627c-.846-.763-2.836-1.526-6.01-2.204-5.123-1.144-8.805-2.67-10.964-4.619-2.159-1.822-3.386-4.492-3.302-7.331a9.83 9.83 0 0 1 1.693-5.509c1.27-1.822 3.006-3.263 5.08-4.068 2.244-.975 5.376-1.483 9.313-1.483 4.825 0 8.508.89 11.048 2.712 2.54 1.822 4.021 4.661 4.487 8.602l-11.006.636c-.296-1.695-.889-2.924-1.863-3.73-.93-.804-2.243-1.186-3.894-1.143-1.354 0-2.37.296-3.048.89-.677.508-1.058 1.27-1.016 2.118 0 .636.339 1.23.847 1.61.55.51 1.863.975 3.937 1.4 5.122 1.1 8.762 2.203 11.005 3.347 2.244 1.144 3.853 2.543 4.826 4.195 1.016 1.695 1.524 3.645 1.524 5.594a12.2 12.2 0 0 1-2.032 6.696 12.846 12.846 0 0 1-5.63 4.661c-2.413 1.06-5.46 1.61-9.1 1.61-6.435 0-10.88-1.229-13.377-3.729C1.736 80.771.339 77.635 0 73.821Z" fill="#fff"/><path d="m56.299 70.854 10.244 3.094c-.55 2.585-1.694 5.043-3.26 7.204-1.439 1.907-3.344 3.39-5.503 4.365C55.58 86.492 52.785 87 49.4 87c-4.106 0-7.492-.593-10.075-1.78-2.624-1.186-4.867-3.305-6.772-6.314-1.905-3.009-2.836-6.865-2.836-11.569 0-6.272 1.65-11.103 4.995-14.45 3.344-3.348 8.042-5.043 14.138-5.043 4.783 0 8.508.974 11.26 2.881 2.709 1.95 4.74 4.916 6.095 8.9l-10.328 2.288c-.255-.89-.636-1.78-1.143-2.543a6.72 6.72 0 0 0-2.413-2.076c-.974-.509-2.074-.72-3.175-.72-2.667 0-4.699 1.059-6.096 3.22-1.058 1.568-1.608 4.068-1.608 7.458 0 4.196.635 7.077 1.905 8.645 1.27 1.568 3.048 2.33 5.376 2.33 2.243 0 3.936-.635 5.08-1.864 1.142-1.313 1.989-3.135 2.497-5.509ZM80.215 48.48h11.683v13.264h12.784V48.48h11.768v37.885h-11.768v-15.34H91.898v15.34H80.215V48.48Z" fill="#fff"/><path d="M114.841 67.422c0-6.187 1.736-11.018 5.165-14.45 3.428-3.433 8.254-5.17 14.392-5.17 6.307 0 11.133 1.694 14.561 5.084 3.429 3.39 5.122 8.137 5.122 14.24 0 4.449-.762 8.05-2.243 10.89a15.876 15.876 0 0 1-6.434 6.61c-2.837 1.569-6.35 2.374-10.541 2.374-4.275 0-7.788-.678-10.582-2.034a16.135 16.135 0 0 1-6.815-6.441c-1.736-2.967-2.625-6.654-2.625-11.103Zm11.683.042c0 3.814.72 6.569 2.117 8.264 1.397 1.652 3.344 2.5 5.799 2.5 2.498 0 4.445-.805 5.842-2.458 1.397-1.653 2.074-4.577 2.074-8.814 0-3.56-.72-6.187-2.159-7.798-1.439-1.652-3.386-2.458-5.842-2.458-2.158-.084-4.233.848-5.672 2.5-1.439 1.653-2.159 4.408-2.159 8.264Zm39.537-.042c0-6.187 1.735-11.018 5.164-14.45 3.429-3.433 8.254-5.17 14.392-5.17 6.307 0 11.175 1.694 14.562 5.084 3.386 3.39 5.121 8.137 5.121 14.24 0 4.449-.761 8.05-2.243 10.89a15.87 15.87 0 0 1-6.434 6.61c-2.836 1.569-6.35 2.374-10.54 2.374-4.276 0-7.789-.678-10.583-2.034a16.141 16.141 0 0 1-6.815-6.441c-1.736-2.967-2.624-6.654-2.624-11.103Zm11.683.042c0 3.814.719 6.569 2.116 8.264 1.397 1.652 3.344 2.5 5.799 2.5 2.498 0 4.445-.805 5.842-2.458 1.397-1.653 2.074-4.577 2.074-8.814 0-3.56-.72-6.187-2.159-7.798-1.439-1.652-3.386-2.458-5.841-2.458a7.109 7.109 0 0 0-5.673 2.5c-1.439 1.653-2.158 4.408-2.158 8.264Z" fill="#fff"/><path d="M204.073 48.48h11.683V77.04H234v9.323h-29.97V48.48h.043ZM191.196 46.293c11.762-8.874 15.389-23.916 8.101-33.598-7.288-9.682-22.732-10.338-34.494-1.464-11.762 8.874-15.389 23.916-8.101 33.598 7.288 9.682 22.731 10.338 34.494 1.464Z" fill="#fff"/><path d="m126.704 23.96 60.783-45.855 42.06 55.875-60.783 45.856-42.06-55.876Z" fill="#192F2D"/><path d="M191.196 46.293c11.762-8.874 15.389-23.916 8.101-33.598-7.288-9.682-22.732-10.338-34.494-1.464-11.762 8.874-15.389 23.916-8.101 33.598 7.288 9.682 22.731 10.338 34.494 1.464Z" fill="#192F2D"/><path d="m143.63 27.691 42.562-32.108 26.417 35.096-42.562 32.108-26.417-35.096Z" fill="#192F2D"/><path d="M191.196 46.293c11.762-8.874 15.389-23.916 8.101-33.598-7.288-9.682-22.732-10.338-34.494-1.464-11.762 8.874-15.389 23.916-8.101 33.598 7.288 9.682 22.731 10.338 34.494 1.464Z" fill="#192F2D" stroke="#fff" stroke-width="4" stroke-miterlimit="10"/><path d="m143.63 27.691 42.562-32.108 26.417 35.096-42.562 32.108-26.417-35.096Z" stroke="#fff" stroke-width="4" stroke-miterlimit="10"/><path d="M191.196 46.293c11.762-8.874 15.389-23.916 8.101-33.598-7.288-9.682-22.732-10.338-34.494-1.464-11.762 8.874-15.389 23.916-8.101 33.598 7.288 9.682 22.731 10.338 34.494 1.464Z" stroke="#fff" stroke-width="4" stroke-miterlimit="10"/><path d="m143.63 27.691 42.562-32.108 26.417 35.096-42.562 32.108-26.417-35.096Z" fill="#192F2D"/><path d="M191.196 46.293c11.762-8.874 15.389-23.916 8.101-33.598-7.288-9.682-22.732-10.338-34.494-1.464-11.762 8.874-15.389 23.916-8.101 33.598 7.288 9.682 22.731 10.338 34.494 1.464Z" fill="#192F2D" stroke="#fff" stroke-width="4" stroke-miterlimit="10"/><path d="m143.63 27.691 42.562-32.108 26.417 35.096-42.562 32.108-26.417-35.096Z" stroke="#fff" stroke-width="4" stroke-miterlimit="10"/><path d="m126.704 23.96 60.783-45.855 42.06 55.875-60.783 45.856-42.06-55.876Z" stroke="#fff" stroke-width="4" stroke-miterlimit="10"/><path d="M191.196 46.293c11.762-8.874 15.389-23.916 8.101-33.598-7.288-9.682-22.732-10.338-34.494-1.464-11.762 8.874-15.389 23.916-8.101 33.598 7.288 9.682 22.731 10.338 34.494 1.464Z" stroke="#fff" stroke-width="4" stroke-miterlimit="10"/><path d="m166.103 25.977 4.233-2.966 5.206 7.416a14.711 14.711 0 0 1 2.074 3.856 4.95 4.95 0 0 1-.211 3.22 6.894 6.894 0 0 1-2.625 3.094c-1.397.975-2.582 1.526-3.598 1.695-.973.17-1.989 0-2.92-.424a7.08 7.08 0 0 1-2.583-2.16l3.641-3.39c.296.465.677.889 1.1 1.228.297.212.635.339 1.016.339.297 0 .593-.127.805-.297.423-.254.719-.762.677-1.27-.127-.721-.423-1.442-.889-1.993l-5.926-8.348Zm12.699 4.704 3.852-3.051c.423.508.973.89 1.566 1.102.847.254 1.735.084 2.455-.467.508-.339.931-.805 1.101-1.398a1.488 1.488 0 0 0-.932-1.865 1.234 1.234 0 0 0-.381-.084c-.508-.043-1.396.17-2.709.72-2.158.89-3.852 1.229-5.122 1.102-1.227-.127-2.37-.763-3.047-1.822-.508-.72-.762-1.568-.805-2.416 0-.974.254-1.95.805-2.754.804-1.145 1.778-2.12 2.963-2.882 1.778-1.229 3.344-1.822 4.698-1.822 1.355 0 2.625.636 3.81 1.95l-3.81 3.008c-.762-.975-2.201-1.187-3.174-.424l-.127.127c-.424.255-.72.636-.889 1.102-.127.34-.043.72.169 1.017.169.212.423.381.72.381.338.043.931-.127 1.777-.508 2.117-.89 3.726-1.398 4.826-1.568a4.868 4.868 0 0 1 2.794.297 4.363 4.363 0 0 1 1.947 1.652c.593.848.931 1.865.974 2.924a5.34 5.34 0 0 1-.847 3.094 10.357 10.357 0 0 1-2.878 2.882c-2.329 1.61-4.233 2.288-5.757 2.034-1.651-.255-3.006-1.102-3.979-2.331Z" fill="#fff"/></g><defs><clipPath id="a"><path fill="#fff" d="M0 0h234v87H0z"/></clipPath></defs></svg>